<svg width="759" height="140" viewBox="0 0 759 140" fill="none" xmlns="http://www.w3.org/2000/svg">
<path d="M203.688 32.75V29.9375H214.938V51.75H203.688V47.75C199.938 42.375 194.812 39.6875 188.312 39.6875C184.896 39.6875 182.104 40.4375 179.938 41.9375C177.771 43.4375 176.688 45.375 176.688 47.75C176.688 49.875 177.5 51.5417 179.125 52.75C180.792 53.9583 184.5 55.0208 190.25 55.9375L198.938 57.625C211.896 60 218.375 66.3542 218.375 76.6875C218.375 82.7292 216.021 87.5833 211.312 91.25C206.646 94.9167 200.438 96.75 192.688 96.75C189.604 96.75 186.562 96.3125 183.562 95.4375C180.604 94.5208 178.125 93.3958 176.125 92.0625V95.625H164.625V73.125H176.125V75.375C176.75 78.5417 178.5 81.0833 181.375 83C184.292 84.9167 187.667 85.875 191.5 85.875C195.708 85.875 199.021 85.1458 201.438 83.6875C203.854 82.1875 205.062 79.9792 205.062 77.0625C205.062 74.9375 204.104 73.3542 202.188 72.3125C200.271 71.2292 196.417 70.125 190.625 69L183.938 67.5625C177.312 66.2292 172.458 63.9375 169.375 60.6875C166.292 57.4375 164.75 53.2917 164.75 48.25C164.75 44.1667 165.875 40.6875 168.125 37.8125C170.417 34.8958 173.333 32.7083 176.875 31.25C180.417 29.7917 184.062 29.0625 187.812 29.0625C194.104 29.0625 199.396 30.2917 203.688 32.75Z" fill="white"/>
<path d="M242.055 7.8125C242.055 9.9375 241.284 11.7708 239.743 13.3125C238.201 14.8542 236.368 15.625 234.243 15.625C232.118 15.625 230.305 14.8542 228.805 13.3125C227.305 11.7708 226.555 9.9375 226.555 7.8125C226.555 5.6875 227.305 3.85417 228.805 2.3125C230.305 0.770833 232.118 0 234.243 0C236.451 0 238.305 0.75 239.805 2.25C241.305 3.75 242.055 5.60417 242.055 7.8125ZM251.305 84.125V95.625H218.118V84.125H228.368V41.5H218.118V29.9375H241.305V84.125H251.305Z" fill="white"/>
<path d="M331.11 84.125V95.625H306.423V86C299.839 93.1667 291.985 96.75 282.86 96.75C276.527 96.75 270.923 95.2708 266.048 92.3125C261.214 89.3125 257.443 85.25 254.735 80.125C252.068 75 250.735 69.3333 250.735 63.125C250.735 56.7917 252.152 50.9583 254.985 45.625C257.86 40.2917 261.818 36.0625 266.86 32.9375C271.902 29.7708 277.36 28.1875 283.235 28.1875C287.485 28.1875 291.506 29.0417 295.298 30.75C299.131 32.4583 302.839 35.1458 306.423 38.8125V12.8125H293.735V1.4375H319.235V84.125H331.11ZM285.298 85.25C289.298 85.25 292.902 84.1875 296.11 82.0625C299.318 79.9375 301.839 77.1042 303.673 73.5625C305.506 70.0208 306.423 66.2292 306.423 62.1875C306.423 58.1042 305.506 54.375 303.673 51C301.839 47.625 299.298 44.9583 296.048 43C292.798 41.0417 289.131 40.0625 285.048 40.0625C281.089 40.0625 277.548 41.125 274.423 43.25C271.339 45.3333 268.902 48.125 267.11 51.625C265.318 55.0833 264.423 58.7917 264.423 62.75C264.423 67 265.339 70.8333 267.173 74.25C269.006 77.6667 271.506 80.3542 274.673 82.3125C277.839 84.2708 281.381 85.25 285.298 85.25Z" fill="white"/>
<path d="M398.665 66.0625H343.603C344.394 72.3542 346.832 77.3333 350.915 81C354.998 84.625 359.998 86.4375 365.915 86.4375C370.248 86.4375 374.269 85.5417 377.978 83.75C381.686 81.9583 384.79 79.2083 387.29 75.5L398.665 80.625C395.082 86.2083 390.373 90.4375 384.54 93.3125C378.748 96.1458 372.436 97.5625 365.603 97.5625C358.519 97.5625 352.228 96.0833 346.728 93.125C341.228 90.1667 336.936 86.0417 333.853 80.75C330.811 75.4583 329.29 69.5 329.29 62.875C329.29 56.2917 330.79 50.3542 333.79 45.0625C336.832 39.7708 340.978 35.6458 346.228 32.6875C351.478 29.6875 357.269 28.1875 363.603 28.1875C370.519 28.1875 376.54 29.7292 381.665 32.8125C386.832 35.8542 390.894 40.2292 393.853 45.9375C396.811 51.6042 398.415 58.3125 398.665 66.0625ZM363.853 38.9375C358.978 38.9375 354.707 40.5833 351.04 43.875C347.373 47.125 345.019 51.4375 343.978 56.8125H385.103C383.894 51.4375 381.332 47.125 377.415 43.875C373.498 40.5833 368.978 38.9375 363.853 38.9375Z" fill="white"/>
<path d="M443.845 28.1875C456.053 28.1875 462.158 34.7917 462.158 48V84.125H473.283V95.625H449.22V52.625C449.22 47.9167 448.533 44.6042 447.158 42.6875C445.824 40.7708 443.741 39.8125 440.908 39.8125C436.116 39.8125 429.887 42.625 422.22 48.25V84.125H433.595V95.625H397.533V84.125H409.283V12.8125H397.533V1.4375H422.22V37.625C429.97 31.3333 437.178 28.1875 443.845 28.1875Z" fill="white"/>
<path d="M501.587 85.5C507.379 85.5 513.65 82.6875 520.4 77.0625V41.5H508.775V29.9375H533.337V84.125H544.587V95.625H520.4V88.0625C512.817 93.8542 505.608 96.75 498.775 96.75C492.608 96.75 488.046 94.9167 485.087 91.25C482.171 87.5833 480.712 81.5 480.712 73V41.5H471.525V29.9375H493.65V75.6875C493.65 79.0625 494.254 81.5417 495.462 83.125C496.712 84.7083 498.754 85.5 501.587 85.5Z" fill="white"/>
<path d="M558.393 85H588.518V71.4375H599.768V95.625H543.33V85L584.268 40.6875H557.393V53.25H546.393V29.9375H599.768V41.5L558.393 85Z" fill="white"/>
<path d="M614.823 85H644.948V71.4375H656.198V95.625H599.76V85L640.698 40.6875H613.823V53.25H602.823V29.9375H656.198V41.5L614.823 85Z" fill="white"/>
<path d="M688.94 84.125V95.625H654.378V84.125H666.003V12.8125H654.378V1.4375H678.94V84.125H688.94Z" fill="white"/>
<path d="M758.995 66.0625H703.932C704.724 72.3542 707.162 77.3333 711.245 81C715.328 84.625 720.328 86.4375 726.245 86.4375C730.578 86.4375 734.599 85.5417 738.307 83.75C742.016 81.9583 745.12 79.2083 747.62 75.5L758.995 80.625C755.412 86.2083 750.703 90.4375 744.87 93.3125C739.078 96.1458 732.766 97.5625 725.932 97.5625C718.849 97.5625 712.557 96.0833 707.057 93.125C701.557 90.1667 697.266 86.0417 694.182 80.75C691.141 75.4583 689.62 69.5 689.62 62.875C689.62 56.2917 691.12 50.3542 694.12 45.0625C697.162 39.7708 701.307 35.6458 706.557 32.6875C711.807 29.6875 717.599 28.1875 723.932 28.1875C730.849 28.1875 736.87 29.7292 741.995 32.8125C747.162 35.8542 751.224 40.2292 754.182 45.9375C757.141 51.6042 758.745 58.3125 758.995 66.0625ZM724.182 38.9375C719.307 38.9375 715.037 40.5833 711.37 43.875C707.703 47.125 705.349 51.4375 704.307 56.8125H745.432C744.224 51.4375 741.662 47.125 737.745 43.875C733.828 40.5833 729.307 38.9375 724.182 38.9375Z" fill="white"/>
<path d="M609.008 116.094V114.312H613.32V123.641H609.008C608.82 121.844 608.102 120.477 606.852 119.539C605.602 118.586 604.156 118.109 602.516 118.109C601.109 118.109 599.844 118.484 598.719 119.234C597.609 119.984 596.75 121 596.141 122.281C595.531 123.562 595.227 124.961 595.227 126.477C595.227 129.055 595.914 131.164 597.289 132.805C598.664 134.43 600.477 135.242 602.727 135.242C606.211 135.242 608.672 133.625 610.109 130.391L614.141 132.312C611.875 137.219 608 139.672 602.516 139.672C600.062 139.672 597.883 139.094 595.977 137.938C594.07 136.781 592.594 135.195 591.547 133.18C590.516 131.164 590 128.93 590 126.477C590 124.07 590.523 121.883 591.57 119.914C592.633 117.945 594.086 116.414 595.93 115.32C597.773 114.211 599.828 113.656 602.094 113.656C604.781 113.656 607.086 114.469 609.008 116.094Z" fill="#FF0000"/>
<path d="M637.877 123.008V134.633H642.002V138.945H633.612V135.922C631.268 138.219 628.658 139.367 625.783 139.367C624.268 139.367 622.877 139.016 621.612 138.312C620.362 137.609 619.354 136.672 618.588 135.5C617.838 134.312 617.463 133 617.463 131.562C617.463 130.016 617.877 128.641 618.705 127.438C619.549 126.219 620.682 125.281 622.104 124.625C623.526 123.969 624.955 123.641 626.393 123.641C628.799 123.641 631.041 124.344 633.119 125.75V123.102C633.119 121.18 632.713 119.805 631.901 118.977C631.088 118.148 629.752 117.734 627.893 117.734C626.58 117.734 625.479 117.977 624.588 118.461C623.713 118.93 622.987 119.648 622.408 120.617L617.768 119.469C618.815 117.516 620.229 116.062 622.01 115.109C623.791 114.141 625.908 113.656 628.362 113.656C631.658 113.656 634.065 114.406 635.58 115.906C637.112 117.406 637.877 119.773 637.877 123.008ZM626.44 135.641C628.815 135.641 631.041 134.648 633.119 132.664V129.781C631.01 128.141 628.901 127.32 626.791 127.32C625.51 127.32 624.401 127.727 623.463 128.539C622.541 129.336 622.08 130.344 622.08 131.562C622.08 132.734 622.487 133.711 623.299 134.492C624.112 135.258 625.158 135.641 626.44 135.641Z" fill="#FF0000"/>
<path d="M667.965 122.375V134.633H672.09V138.945H663.114V122.68C663.114 121.133 662.887 120.023 662.434 119.352C661.997 118.68 661.27 118.344 660.254 118.344C658.098 118.344 655.676 119.406 652.989 121.531V134.633H657.231V138.945H643.872V134.633H648.208V118.648H643.872V114.312H652.989V117.289C656.004 115.086 658.84 113.984 661.497 113.984C663.7 113.984 665.325 114.664 666.372 116.023C667.434 117.383 667.965 119.5 667.965 122.375Z" fill="#FF0000"/>
<path d="M694.819 123.008V134.633H698.944V138.945H690.553V135.922C688.21 138.219 685.6 139.367 682.725 139.367C681.21 139.367 679.819 139.016 678.553 138.312C677.303 137.609 676.296 136.672 675.53 135.5C674.78 134.312 674.405 133 674.405 131.562C674.405 130.016 674.819 128.641 675.647 127.438C676.491 126.219 677.624 125.281 679.046 124.625C680.467 123.969 681.897 123.641 683.335 123.641C685.741 123.641 687.983 124.344 690.061 125.75V123.102C690.061 121.18 689.655 119.805 688.842 118.977C688.03 118.148 686.694 117.734 684.835 117.734C683.522 117.734 682.421 117.977 681.53 118.461C680.655 118.93 679.928 119.648 679.35 120.617L674.71 119.469C675.757 117.516 677.171 116.062 678.952 115.109C680.733 114.141 682.85 113.656 685.303 113.656C688.6 113.656 691.007 114.406 692.522 115.906C694.053 117.406 694.819 119.773 694.819 123.008ZM683.382 135.641C685.757 135.641 687.983 134.648 690.061 132.664V129.781C687.952 128.141 685.842 127.32 683.733 127.32C682.452 127.32 681.342 127.727 680.405 128.539C679.483 129.336 679.022 130.344 679.022 131.562C679.022 132.734 679.428 133.711 680.241 134.492C681.053 135.258 682.1 135.641 683.382 135.641Z" fill="#FF0000"/>
<path d="M731.587 134.633V138.945H722.329V135.336C719.86 138.023 716.915 139.367 713.493 139.367C711.118 139.367 709.017 138.812 707.188 137.703C705.376 136.578 703.962 135.055 702.946 133.133C701.946 131.211 701.446 129.086 701.446 126.758C701.446 124.383 701.978 122.195 703.04 120.195C704.118 118.195 705.603 116.609 707.493 115.438C709.384 114.25 711.431 113.656 713.634 113.656C715.228 113.656 716.735 113.977 718.157 114.617C719.595 115.258 720.985 116.266 722.329 117.641V107.891H717.571V103.625H727.134V134.633H731.587ZM714.407 135.055C715.907 135.055 717.259 134.656 718.462 133.859C719.665 133.062 720.61 132 721.298 130.672C721.985 129.344 722.329 127.922 722.329 126.406C722.329 124.875 721.985 123.477 721.298 122.211C720.61 120.945 719.657 119.945 718.438 119.211C717.22 118.477 715.845 118.109 714.313 118.109C712.829 118.109 711.501 118.508 710.329 119.305C709.173 120.086 708.259 121.133 707.587 122.445C706.915 123.742 706.579 125.133 706.579 126.617C706.579 128.211 706.923 129.648 707.61 130.93C708.298 132.211 709.235 133.219 710.423 133.953C711.61 134.688 712.938 135.055 714.407 135.055Z" fill="#FF0000"/>
<path d="M754.761 123.008V134.633H758.886V138.945H750.495V135.922C748.152 138.219 745.542 139.367 742.667 139.367C741.152 139.367 739.761 139.016 738.495 138.312C737.245 137.609 736.238 136.672 735.472 135.5C734.722 134.312 734.347 133 734.347 131.562C734.347 130.016 734.761 128.641 735.589 127.438C736.433 126.219 737.566 125.281 738.988 124.625C740.409 123.969 741.839 123.641 743.277 123.641C745.683 123.641 747.925 124.344 750.003 125.75V123.102C750.003 121.18 749.597 119.805 748.784 118.977C747.972 118.148 746.636 117.734 744.777 117.734C743.464 117.734 742.363 117.977 741.472 118.461C740.597 118.93 739.87 119.648 739.292 120.617L734.652 119.469C735.698 117.516 737.113 116.062 738.894 115.109C740.675 114.141 742.792 113.656 745.245 113.656C748.542 113.656 750.948 114.406 752.464 115.906C753.995 117.406 754.761 119.773 754.761 123.008ZM743.323 135.641C745.698 135.641 747.925 134.648 750.003 132.664V129.781C747.894 128.141 745.784 127.32 743.675 127.32C742.394 127.32 741.284 127.727 740.347 128.539C739.425 129.336 738.964 130.344 738.964 131.562C738.964 132.734 739.37 133.711 740.183 134.492C740.995 135.258 742.042 135.641 743.323 135.641Z" fill="#FF0000"/>
<path fill-rule="evenodd" clip-rule="evenodd" d="M9.2382 56.5132C-3.0258 44.3248 -3.08701 24.5022 9.10144 12.2382C21.2899 -0.0257925 41.1125 -0.0870194 53.3765 12.1014L126.369 84.644C138.633 96.8324 138.694 116.655 126.505 128.919C114.317 141.183 94.4943 141.244 82.2303 129.056L9.2382 56.5132ZM59.8507 136.657L3.35066 80.657V136.657H59.8507ZM76.8507 5.15701H133.851V62.657L76.8507 5.15701Z" fill="#FF0000"/>
</svg>
